<?xml version="1.0" standalone="no"?>
<svg viewBox="0 0 200 200" xmlns="http://www.w3.org/2000/svg">
  <path fill="#E8DAFF" d="M28.3,-53C37.6,-43.7,46.7,-38,56.3,-29.7C65.9,-21.5,76,-10.7,70.6,-3.1C65.2,4.5,44.3,9,38,23.1C31.8,37.1,40.3,60.8,36.4,69.5C32.5,78.2,16.3,71.8,4.3,64.3C-7.6,56.8,-15.1,48.1,-26.1,43.4C-37,38.8,-51.2,38.3,-55.5,31.8C-59.7,25.2,-54,12.6,-56.9,-1.7C-59.8,-15.9,-71.3,-31.9,-67.4,-39C-63.4,-46.1,-44.1,-44.5,-30.3,-51.1C-16.5,-57.8,-8.2,-72.8,0.6,-73.9C9.5,-75,19,-62.2,28.3,-53Z" transform="translate(100 100)" />
</svg>
